<svg width="33" height="33" viewBox="0 0 33 33" fill="none" xmlns="http://www.w3.org/2000/svg">
<path fill-rule="evenodd" clip-rule="evenodd" d="M4.91556 2.45448C6.68804 0.687633 9.65993 1.18171 10.9148 3.26644L10.9236 3.28094L13.8161 8.2241C14.6679 9.71007 14.453 11.6203 13.1822 12.8871L12.7024 13.3653C14.4011 16.0297 16.9817 18.6656 19.5901 20.2466L20.0669 19.8241C21.3378 18.5851 23.2348 18.3815 24.7131 19.2235L24.7237 19.2296L29.6186 22.076C30.8305 22.6561 31.4683 23.7771 31.599 24.8962C31.7293 26.0145 31.3715 27.2281 30.5011 28.0957L28.8517 29.7399C27.1392 31.4469 24.3513 32.2024 21.9724 31.1245C18.8409 29.8447 14.1443 27.4301 9.86379 23.1632C5.57216 18.8852 3.15304 14.0574 1.88206 11.104C0.797785 8.73978 1.54495 5.9677 3.24553 4.25631L4.87749 2.49398C4.88992 2.48056 4.90261 2.46738 4.91556 2.45448ZM6.8744 4.37761L5.24807 6.13385C5.23565 6.14727 5.22296 6.16043 5.21 6.17335C4.1805 7.19957 3.83797 8.78926 4.38646 9.97388C4.39175 9.98534 4.39688 9.9968 4.40184 10.0084C5.60687 12.8112 7.86011 17.2904 11.8077 21.2255C15.7623 25.1675 20.1231 27.4097 23.0396 28.599C23.0583 28.6066 23.0768 28.6147 23.0951 28.6231C24.2836 29.1699 25.8783 28.8284 26.9078 27.8022L28.5573 26.158C28.7865 25.9295 28.9097 25.5675 28.8683 25.2127C28.8295 24.8805 28.6648 24.653 28.4106 24.5378C28.3683 24.5186 28.3269 24.4973 28.2868 24.474L23.3448 21.6003C22.9118 21.3561 22.3565 21.4168 21.9791 21.793C21.96 21.812 21.9405 21.8304 21.9203 21.8482L20.6833 22.9444C20.2572 23.3218 19.6417 23.3981 19.136 23.1359C15.4274 21.2136 11.8088 17.443 9.77396 13.8209C9.4732 13.2855 9.56606 12.6163 10.0013 12.1825L11.2383 10.9494C11.6157 10.5732 11.6766 10.0196 11.4317 9.58797L8.55393 4.67042C8.16223 4.02795 7.30506 3.96934 6.8744 4.37761Z" fill="#EFEEEA"/>
<path fill-rule="evenodd" clip-rule="evenodd" d="M22.3512 10.6488C21.6617 9.9594 20.5969 9.71227 19.8438 9.96325C19.0602 10.2244 18.2133 9.80091 17.9522 9.01741C17.6909 8.23387 18.1144 7.38695 18.898 7.12576C20.8368 6.47949 23.0619 7.12963 24.4661 8.53387C25.8703 9.93813 26.5205 12.1632 25.8742 14.102C25.613 14.8856 24.7661 15.3091 23.9826 15.0478C23.199 14.7867 22.7756 13.9398 23.0367 13.1562C23.2877 12.4031 23.0406 11.3383 22.3512 10.6488Z" fill="#EFEEEA"/>
<path fill-rule="evenodd" clip-rule="evenodd" d="M26.0553 6.94468C23.6159 4.50523 20.0699 3.64671 16.8925 4.50215C16.1445 4.70352 15.375 4.26041 15.1736 3.51244C14.9722 2.76447 15.4153 1.99486 16.1633 1.79348C20.2792 0.685333 24.8681 1.79039 28.0388 4.96117C31.2096 8.13194 32.3147 12.7208 31.2065 16.8367C31.0051 17.5847 30.2355 18.0278 29.4876 17.8264C28.7396 17.625 28.2965 16.8555 28.4979 16.1075C29.3533 12.9301 28.4948 9.3841 26.0553 6.94468Z" fill="#EFEEEA"/>
</svg>
