<svg width="36" height="36" viewBox="0 0 36 36" fill="none" xmlns="http://www.w3.org/2000/svg">
<path fill-rule="evenodd" clip-rule="evenodd" d="M8.42592 7.5C6.36906 7.5 4.5 9.34141 4.5 11.9586V24.0414C4.5 26.6586 6.36906 28.5 8.42592 28.5H27.7181C29.7814 28.5 31.6112 26.6645 31.4949 24.1096C31.4938 24.0869 31.4933 24.0641 31.4933 24.0414V11.9586C31.4933 9.34141 29.6242 7.5 27.5674 7.5H8.42592ZM1.5 11.9586C1.5 7.95514 4.45398 4.5 8.42592 4.5H27.5674C31.5393 4.5 34.4933 7.95514 34.4933 11.9586V24.0091C34.6592 28.0593 31.6719 31.5 27.7181 31.5H8.42592C4.45398 31.5 1.5 28.0449 1.5 24.0414V11.9586Z" fill="#EFEEEA"/>
<path fill-rule="evenodd" clip-rule="evenodd" d="M7.69526 11.2607C8.10371 10.54 9.0191 10.2868 9.73983 10.6953L16.758 14.6726C17.5705 15.1095 18.43 15.1095 19.2425 14.6726L26.2607 10.6953C26.9814 10.2868 27.8968 10.54 28.3053 11.2607C28.7137 11.9814 28.4606 12.8968 27.7398 13.3053L20.7086 17.29L20.6846 17.3033C18.9727 18.2326 17.0278 18.2326 15.3159 17.3033L15.2919 17.29L8.26069 13.3053C7.53996 12.8968 7.2868 11.9814 7.69526 11.2607Z" fill="#EFEEEA"/>
</svg>
