<svg width="18" height="18" viewBox="0 0 18 18" fill="none" xmlns="http://www.w3.org/2000/svg">
<path fill-rule="evenodd" clip-rule="evenodd" d="M4.21296 3.75C3.18453 3.75 2.25 4.67071 2.25 5.9793V12.0207C2.25 13.3293 3.18453 14.25 4.21296 14.25H13.859C14.8907 14.25 15.8056 13.3322 15.7474 12.0548C15.7469 12.0435 15.7466 12.0321 15.7466 12.0207V5.9793C15.7466 4.67071 14.8121 3.75 13.7837 3.75H4.21296ZM0.75 5.9793C0.75 3.97757 2.22699 2.25 4.21296 2.25H13.7837C15.7696 2.25 17.2467 3.97757 17.2467 5.9793V12.0045C17.3296 14.0296 15.8359 15.75 13.859 15.75H4.21296C2.22699 15.75 0.75 14.0225 0.75 12.0207V5.9793Z" fill="#252525"/>
<path fill-rule="evenodd" clip-rule="evenodd" d="M3.84763 5.63034C4.05186 5.26999 4.50955 5.14339 4.86992 5.34764L8.379 7.33629C8.78525 7.55474 9.215 7.55474 9.62125 7.33629L13.1304 5.34764C13.4907 5.14339 13.9484 5.26999 14.1526 5.63034C14.3568 5.99069 14.2303 6.44839 13.8699 6.65264L10.3543 8.64499L10.3423 8.65164C9.48635 9.11629 8.5139 9.11629 7.65795 8.65164L7.64595 8.64499L4.13035 6.65264C3.76998 6.44839 3.6434 5.99069 3.84763 5.63034Z" fill="#252525"/>
</svg>
