<svg width="14" height="14" viewBox="0 0 14 14" fill="none" xmlns="http://www.w3.org/2000/svg">
<g clip-path="url(#clip0_118_85)">
<path fill-rule="evenodd" clip-rule="evenodd" d="M2.08555 1.04121C2.83751 0.291642 4.09831 0.501251 4.63066 1.38568L4.6344 1.39183L5.86154 3.48893C6.22289 4.11934 6.13174 4.92975 5.59262 5.46715L5.38907 5.67004C6.10972 6.80038 7.20452 7.91867 8.31111 8.58939L8.51341 8.41015C9.05256 7.88449 9.85733 7.79811 10.4845 8.15535L10.489 8.15791L12.5656 9.36549C13.0798 9.61158 13.3504 10.0872 13.4058 10.5619C13.4611 11.0364 13.3093 11.5512 12.94 11.9193L12.2403 12.6168C11.5138 13.341 10.331 13.6615 9.32179 13.2043C7.99327 12.6613 6.00076 11.6369 4.1848 9.82671C2.36411 8.01181 1.33782 5.96365 0.798611 4.71072C0.338617 3.7077 0.655597 2.53167 1.37706 1.80563L2.0694 1.05797C2.07468 1.05228 2.08006 1.04669 2.08555 1.04121ZM2.91657 1.85709L2.22662 2.60216C2.22135 2.60785 2.21596 2.61344 2.21047 2.61891C1.77371 3.05428 1.62839 3.72869 1.86109 4.23126C1.86333 4.23612 1.8655 4.24099 1.86761 4.24589C2.37883 5.43495 3.33475 7.33526 5.00948 9.00468C6.68719 10.6771 8.53725 11.6283 9.77454 12.1328C9.78247 12.1361 9.79033 12.1395 9.7981 12.1431C10.3023 12.375 10.9788 12.2302 11.4156 11.7948L12.1154 11.0973C12.2126 11.0003 12.2649 10.8467 12.2473 10.6962C12.2309 10.5553 12.161 10.4588 12.0532 10.4099C12.0352 10.4018 12.0176 10.3927 12.0006 10.3828L9.90404 9.1637C9.72032 9.0601 9.48474 9.08584 9.32463 9.24544C9.31654 9.25349 9.30826 9.26131 9.2997 9.26885L8.7749 9.73389C8.59414 9.89403 8.333 9.92639 8.11845 9.81516C6.54513 8.99963 5.00995 7.39997 4.14669 5.86331C4.0191 5.6362 4.05849 5.35227 4.24314 5.16825L4.76794 4.64512C4.92805 4.48552 4.95387 4.25067 4.84996 4.06754L3.6291 1.98131C3.46293 1.70875 3.09928 1.68388 2.91657 1.85709Z" fill="#252525"/>
<path fill-rule="evenodd" clip-rule="evenodd" d="M9.48248 4.51777C9.18999 4.22528 8.73822 4.12044 8.41875 4.22692C8.08633 4.33771 7.72703 4.15804 7.61624 3.82565C7.5054 3.49324 7.68507 3.13394 8.01749 3.02313C8.84003 2.74895 9.78398 3.02477 10.3797 3.62051C10.9755 4.21626 11.2513 5.16021 10.9771 5.98275C10.8663 6.31517 10.507 6.49484 10.1746 6.384C9.84216 6.27321 9.66253 5.91391 9.77333 5.58149C9.8798 5.26202 9.77496 4.81025 9.48248 4.51777Z" fill="#252525"/>
<path fill-rule="evenodd" clip-rule="evenodd" d="M11.0536 2.94615C10.0187 1.91123 8.51432 1.54701 7.16636 1.90992C6.84902 1.99535 6.52255 1.80737 6.43711 1.49004C6.35167 1.17272 6.53966 0.846223 6.857 0.760788C8.60315 0.290666 10.5499 0.759478 11.8951 2.10466C13.2403 3.44983 13.7091 5.39661 13.239 7.14276C13.1535 7.46009 12.827 7.64808 12.5097 7.56264C12.1924 7.4772 12.0044 7.15073 12.0898 6.8334C12.4528 5.48543 12.0885 3.98105 11.0536 2.94615Z" fill="#252525"/>
</g>
<defs>
<clipPath id="clip0_118_85">
<rect width="14" height="14" fill="white"/>
</clipPath>
</defs>
</svg>
