<svg width="160" height="45" viewBox="0 0 160 45" fill="none" xmlns="http://www.w3.org/2000/svg">
<path d="M9.33949 8.45312C9.2732 7.83286 8.99384 7.34991 8.50142 7.00426C8.01373 6.65862 7.37926 6.4858 6.59801 6.4858C6.04877 6.4858 5.57765 6.56866 5.18466 6.73438C4.79167 6.90009 4.491 7.125 4.28267 7.40909C4.07434 7.69318 3.9678 8.01752 3.96307 8.3821C3.96307 8.68513 4.03172 8.94792 4.16903 9.17045C4.31108 9.39299 4.50284 9.58239 4.74432 9.73864C4.9858 9.89015 5.25331 10.018 5.54688 10.1222C5.84044 10.2263 6.13636 10.3139 6.43466 10.3849L7.7983 10.7259C8.34754 10.8537 8.87547 11.0265 9.3821 11.2443C9.89347 11.4621 10.3504 11.7367 10.7528 12.0682C11.16 12.3996 11.482 12.7997 11.7188 13.2685C11.9555 13.7372 12.0739 14.2865 12.0739 14.9162C12.0739 15.7685 11.8561 16.5189 11.4205 17.1676C10.9848 17.8116 10.3551 18.3158 9.53125 18.6804C8.71212 19.0402 7.72017 19.2202 6.5554 19.2202C5.42377 19.2202 4.44129 19.045 3.60795 18.6946C2.77936 18.3442 2.13068 17.8329 1.66193 17.1605C1.19792 16.4882 0.94697 15.669 0.909091 14.7031H3.50142C3.5393 15.2098 3.69555 15.6312 3.97017 15.9673C4.24479 16.3035 4.60227 16.5545 5.04261 16.7202C5.48769 16.8859 5.98485 16.9688 6.53409 16.9688C7.10701 16.9688 7.6089 16.8835 8.03977 16.7131C8.47538 16.5379 8.81629 16.2964 9.0625 15.9886C9.30871 15.6761 9.43419 15.3116 9.43892 14.8949C9.43419 14.5161 9.32292 14.2036 9.10511 13.9574C8.88731 13.7064 8.58191 13.4981 8.18892 13.3324C7.80066 13.1619 7.34612 13.0104 6.82528 12.8778L5.17045 12.4517C3.97254 12.1439 3.02557 11.6776 2.32955 11.0526C1.63826 10.4228 1.29261 9.58712 1.29261 8.54545C1.29261 7.68845 1.52462 6.93797 1.98864 6.29403C2.45739 5.65009 3.09422 5.15057 3.89915 4.79545C4.70407 4.43561 5.61553 4.25568 6.63352 4.25568C7.66572 4.25568 8.57008 4.43561 9.34659 4.79545C10.1278 5.15057 10.741 5.64536 11.1861 6.27983C11.6312 6.90956 11.8608 7.634 11.875 8.45312H9.33949ZM14.4229 4.45455H17.6474L21.9656 14.9943H22.136L26.4542 4.45455H29.6786V19H27.1502V9.0071H27.0153L22.9954 18.9574H21.1062L17.0863 8.9858H16.9513V19H14.4229V4.45455ZM34.4158 19H31.6033L36.7241 4.45455H39.9769L45.1048 19H42.2923L38.4073 7.4375H38.2937L34.4158 19ZM34.5082 13.2969H42.1786V15.4134H34.5082V13.2969ZM47.0206 19V4.45455H52.4751C53.5926 4.45455 54.5301 4.64867 55.2876 5.03693C56.05 5.42519 56.6252 5.9697 57.0135 6.67045C57.4065 7.36648 57.603 8.1785 57.603 9.10653C57.603 10.0393 57.4041 10.849 57.0064 11.5355C56.6134 12.2173 56.0334 12.7453 55.2663 13.1193C54.4993 13.4886 53.5571 13.6733 52.4396 13.6733H48.5547V11.4858H52.0845C52.7379 11.4858 53.273 11.3958 53.6896 11.2159C54.1063 11.0312 54.4141 10.7637 54.6129 10.4134C54.8165 10.0582 54.9183 9.62263 54.9183 9.10653C54.9183 8.59044 54.8165 8.15009 54.6129 7.78551C54.4093 7.41619 54.0992 7.13684 53.6825 6.94744C53.2659 6.75331 52.7285 6.65625 52.0703 6.65625H49.6555V19H47.0206ZM54.5348 12.4091L58.1357 19H55.1953L51.6584 12.4091H54.5348ZM59.3892 6.66335V4.45455H70.9943V6.66335H66.4986V19H63.8849V6.66335H59.3892ZM83.2706 19.1989C82.2479 19.1989 81.3388 19.0237 80.5433 18.6733C79.7526 18.3229 79.1276 17.8352 78.6683 17.2102C78.209 16.5852 77.9652 15.8632 77.9368 15.044H80.6072C80.6309 15.437 80.7611 15.7803 80.9979 16.0739C81.2346 16.3627 81.5495 16.5876 81.9425 16.7486C82.3355 16.9096 82.7758 16.9901 83.2635 16.9901C83.7843 16.9901 84.246 16.9001 84.6484 16.7202C85.0509 16.5355 85.3658 16.2798 85.593 15.9531C85.8203 15.6264 85.9316 15.25 85.9268 14.8239C85.9316 14.3835 85.8179 13.9953 85.5859 13.6591C85.3539 13.3229 85.0178 13.0601 84.5774 12.8707C84.1418 12.6813 83.6162 12.5866 83.0007 12.5866H81.7152V10.5554H83.0007C83.5073 10.5554 83.95 10.4678 84.3288 10.2926C84.7124 10.1174 85.013 9.87121 85.2308 9.55398C85.4486 9.23201 85.5552 8.86032 85.5504 8.43892C85.5552 8.02699 85.4628 7.66951 85.2734 7.36648C85.0888 7.05871 84.826 6.8196 84.4851 6.64915C84.1489 6.47869 83.7536 6.39347 83.299 6.39347C82.8539 6.39347 82.442 6.47396 82.0632 6.63494C81.6844 6.79593 81.379 7.02557 81.147 7.32386C80.915 7.61742 80.7919 7.9678 80.7777 8.375H78.2422C78.2611 7.56061 78.4955 6.84564 78.9453 6.23011C79.3999 5.60985 80.0059 5.12689 80.7635 4.78125C81.5211 4.43087 82.371 4.25568 83.3132 4.25568C84.2839 4.25568 85.1267 4.43797 85.8416 4.80256C86.5613 5.1624 87.1177 5.64773 87.5107 6.25852C87.9036 6.86932 88.1001 7.54403 88.1001 8.28267C88.1049 9.1018 87.8634 9.78835 87.3757 10.3423C86.8928 10.8963 86.2583 11.2585 85.4723 11.429V11.5426C86.495 11.6847 87.2786 12.0634 87.8232 12.679C88.3724 13.2898 88.6446 14.0497 88.6399 14.9588C88.6399 15.7732 88.4079 16.5024 87.9439 17.1463C87.4846 17.7855 86.8501 18.2874 86.0405 18.652C85.2356 19.0166 84.3123 19.1989 83.2706 19.1989ZM94.2454 19.2202C93.5541 19.2202 92.9315 19.0971 92.3775 18.8509C91.8282 18.5999 91.3926 18.2306 91.0707 17.7429C90.7534 17.2552 90.5948 16.6539 90.5948 15.9389C90.5948 15.3234 90.7085 14.8144 90.9357 14.4119C91.163 14.0095 91.4731 13.6875 91.8661 13.446C92.2591 13.2045 92.7018 13.0223 93.1942 12.8991C93.6914 12.7713 94.2051 12.679 94.7354 12.6222C95.3746 12.5559 95.8931 12.4967 96.2908 12.4446C96.6886 12.3878 96.9774 12.3026 97.1573 12.1889C97.342 12.0705 97.4343 11.8883 97.4343 11.642V11.5994C97.4343 11.0644 97.2757 10.6501 96.9585 10.3565C96.6412 10.063 96.1843 9.91619 95.5877 9.91619C94.958 9.91619 94.4585 10.0535 94.0891 10.3281C93.7246 10.6027 93.4783 10.9271 93.3505 11.3011L90.9499 10.9602C91.1393 10.2973 91.4518 9.74337 91.8874 9.2983C92.323 8.84848 92.8557 8.51231 93.4854 8.28977C94.1152 8.0625 94.8112 7.94886 95.5735 7.94886C96.0991 7.94886 96.6223 8.01042 97.1431 8.13352C97.6639 8.25663 98.1398 8.46023 98.5707 8.74432C99.0015 9.02367 99.3472 9.40483 99.6076 9.88778C99.8728 10.3707 100.005 10.9744 100.005 11.6989V19H97.5337V17.5014H97.4485C97.2923 17.8045 97.0721 18.0885 96.788 18.3537C96.5086 18.6141 96.1559 18.8248 95.7298 18.9858C95.3084 19.142 94.8136 19.2202 94.2454 19.2202ZM94.913 17.331C95.4291 17.331 95.8765 17.2292 96.2553 17.0256C96.6341 16.8172 96.9253 16.5426 97.1289 16.2017C97.3372 15.8608 97.4414 15.4891 97.4414 15.0866V13.8011C97.3609 13.8674 97.2236 13.929 97.0295 13.9858C96.8401 14.0426 96.627 14.0923 96.3903 14.1349C96.1535 14.1776 95.9192 14.2154 95.6871 14.2486C95.4551 14.2817 95.2539 14.3101 95.0835 14.3338C94.6999 14.3859 94.3567 14.4711 94.0536 14.5895C93.7506 14.7079 93.5115 14.8736 93.3363 15.0866C93.1611 15.295 93.0735 15.5649 93.0735 15.8963C93.0735 16.3698 93.2463 16.7273 93.592 16.9688C93.9376 17.2102 94.378 17.331 94.913 17.331ZM102.591 19V8.09091H105.162V12.4943H106.099L109.38 8.09091H112.477L108.436 13.446L112.52 19H109.409L106.419 14.8878H105.162V19H102.591ZM115.692 23.0909C115.342 23.0909 115.018 23.0625 114.719 23.0057C114.426 22.9536 114.192 22.892 114.016 22.821L114.613 20.8182C114.987 20.9271 115.321 20.9792 115.614 20.9744C115.908 20.9697 116.166 20.8774 116.388 20.6974C116.616 20.5223 116.808 20.2287 116.964 19.8168L117.184 19.2273L113.228 8.09091H115.955L118.469 16.3295H118.583L121.104 8.09091H123.839L119.471 20.321C119.267 20.8987 118.997 21.3935 118.661 21.8054C118.325 22.2221 117.913 22.5393 117.425 22.7571C116.942 22.9796 116.365 23.0909 115.692 23.0909ZM125.618 19V8.09091H134.83V19H132.351V10.2003H128.075V19H125.618ZM137.473 19V8.09091H140.044V12.4943H140.982L144.263 8.09091H147.36L143.319 13.446L147.402 19H144.292L141.301 14.8878H140.044V19H137.473ZM151.999 19.2202C151.308 19.2202 150.685 19.0971 150.131 18.8509C149.582 18.5999 149.147 18.2306 148.825 17.7429C148.507 17.2552 148.349 16.6539 148.349 15.9389C148.349 15.3234 148.462 14.8144 148.69 14.4119C148.917 14.0095 149.227 13.6875 149.62 13.446C150.013 13.2045 150.456 13.0223 150.948 12.8991C151.445 12.7713 151.959 12.679 152.489 12.6222C153.129 12.5559 153.647 12.4967 154.045 12.4446C154.442 12.3878 154.731 12.3026 154.911 12.1889C155.096 12.0705 155.188 11.8883 155.188 11.642V11.5994C155.188 11.0644 155.03 10.6501 154.712 10.3565C154.395 10.063 153.938 9.91619 153.342 9.91619C152.712 9.91619 152.212 10.0535 151.843 10.3281C151.478 10.6027 151.232 10.9271 151.104 11.3011L148.704 10.9602C148.893 10.2973 149.206 9.74337 149.641 9.2983C150.077 8.84848 150.61 8.51231 151.239 8.28977C151.869 8.0625 152.565 7.94886 153.327 7.94886C153.853 7.94886 154.376 8.01042 154.897 8.13352C155.418 8.25663 155.894 8.46023 156.325 8.74432C156.755 9.02367 157.101 9.40483 157.362 9.88778C157.627 10.3707 157.759 10.9744 157.759 11.6989V19H155.288V17.5014H155.202C155.046 17.8045 154.826 18.0885 154.542 18.3537C154.263 18.6141 153.91 18.8248 153.484 18.9858C153.062 19.142 152.567 19.2202 151.999 19.2202ZM152.667 17.331C153.183 17.331 153.63 17.2292 154.009 17.0256C154.388 16.8172 154.679 16.5426 154.883 16.2017C155.091 15.8608 155.195 15.4891 155.195 15.0866V13.8011C155.115 13.8674 154.978 13.929 154.783 13.9858C154.594 14.0426 154.381 14.0923 154.144 14.1349C153.907 14.1776 153.673 14.2154 153.441 14.2486C153.209 14.2817 153.008 14.3101 152.837 14.3338C152.454 14.3859 152.111 14.4711 151.808 14.5895C151.504 14.7079 151.265 14.8736 151.09 15.0866C150.915 15.295 150.827 15.5649 150.827 15.8963C150.827 16.3698 151 16.7273 151.346 16.9688C151.692 17.2102 152.132 17.331 152.667 17.331Z" fill="#252525"/>
<path d="M24.233 42V31.8182H27.6733C28.4721 31.8182 29.125 31.9624 29.6321 32.2507C30.1425 32.5357 30.5204 32.9219 30.7656 33.4091C31.0109 33.8963 31.1335 34.4399 31.1335 35.0398C31.1335 35.6397 31.0109 36.1849 30.7656 36.6754C30.5237 37.166 30.1491 37.5571 29.642 37.8487C29.1349 38.1371 28.4853 38.2812 27.6932 38.2812H25.2273V37.1875H27.6534C28.2003 37.1875 28.6394 37.093 28.9709 36.9041C29.3023 36.7152 29.5426 36.46 29.6918 36.1385C29.8442 35.8137 29.9205 35.4474 29.9205 35.0398C29.9205 34.6321 29.8442 34.2675 29.6918 33.946C29.5426 33.6245 29.3007 33.3726 28.9659 33.1903C28.6312 33.0047 28.187 32.9119 27.6335 32.9119H25.4659V42H24.233ZM35.9808 42.1591C35.2914 42.1591 34.6866 41.995 34.1662 41.6669C33.6491 41.3388 33.2448 40.8797 32.9531 40.2898C32.6648 39.6998 32.5206 39.0104 32.5206 38.2216C32.5206 37.4261 32.6648 36.7318 32.9531 36.1385C33.2448 35.5452 33.6491 35.0845 34.1662 34.7564C34.6866 34.4283 35.2914 34.2642 35.9808 34.2642C36.6702 34.2642 37.2734 34.4283 37.7905 34.7564C38.3108 35.0845 38.7152 35.5452 39.0036 36.1385C39.2952 36.7318 39.4411 37.4261 39.4411 38.2216C39.4411 39.0104 39.2952 39.6998 39.0036 40.2898C38.7152 40.8797 38.3108 41.3388 37.7905 41.6669C37.2734 41.995 36.6702 42.1591 35.9808 42.1591ZM35.9808 41.1051C36.5045 41.1051 36.9354 40.9709 37.2734 40.7024C37.6115 40.4339 37.8617 40.081 38.0241 39.6435C38.1866 39.206 38.2678 38.732 38.2678 38.2216C38.2678 37.7112 38.1866 37.2356 38.0241 36.7947C37.8617 36.3539 37.6115 35.9976 37.2734 35.7259C36.9354 35.4541 36.5045 35.3182 35.9808 35.3182C35.4571 35.3182 35.0263 35.4541 34.6882 35.7259C34.3501 35.9976 34.0999 36.3539 33.9375 36.7947C33.7751 37.2356 33.6939 37.7112 33.6939 38.2216C33.6939 38.732 33.7751 39.206 33.9375 39.6435C34.0999 40.081 34.3501 40.4339 34.6882 40.7024C35.0263 40.9709 35.4571 41.1051 35.9808 41.1051ZM46.8997 31.5L47.4963 32.2159C47.2643 32.4413 46.9958 32.5987 46.6909 32.6882C46.3859 32.7777 46.0413 32.8324 45.6568 32.8523C45.2723 32.8722 44.8448 32.892 44.3741 32.9119C43.8438 32.9318 43.4047 33.0611 43.0566 33.2997C42.7086 33.5384 42.4402 33.883 42.2512 34.3338C42.0623 34.7846 41.9413 35.3381 41.8883 35.9943H41.9877C42.2463 35.517 42.6042 35.1657 43.0616 34.9403C43.519 34.715 44.0095 34.6023 44.5332 34.6023C45.1298 34.6023 45.6667 34.7415 46.144 35.0199C46.6213 35.2983 46.9991 35.7109 47.2775 36.2578C47.5559 36.8047 47.6951 37.4792 47.6951 38.2812C47.6951 39.08 47.5526 39.7694 47.2676 40.3494C46.9859 40.9295 46.5898 41.3769 46.0794 41.6918C45.5723 42.0033 44.9773 42.1591 44.2946 42.1591C43.6118 42.1591 43.0136 41.9983 42.4998 41.6768C41.9861 41.352 41.5867 40.8714 41.3017 40.2351C41.0166 39.5954 40.8741 38.8049 40.8741 37.8636V37.0483C40.8741 35.348 41.1625 34.0587 41.7392 33.1804C42.3192 32.3021 43.1909 31.848 44.3542 31.8182C44.7652 31.8049 45.1315 31.8016 45.4529 31.8082C45.7744 31.8149 46.0545 31.8 46.2931 31.7635C46.5318 31.727 46.734 31.6392 46.8997 31.5ZM44.2946 41.1051C44.7553 41.1051 45.1513 40.9891 45.4828 40.7571C45.8175 40.5251 46.0744 40.1986 46.2534 39.7777C46.4324 39.3535 46.5218 38.8546 46.5218 38.2812C46.5218 37.7244 46.4307 37.2505 46.2484 36.8594C46.0694 36.4683 45.8126 36.17 45.4778 35.9645C45.1431 35.759 44.742 35.6562 44.2747 35.6562C43.9333 35.6562 43.6267 35.7143 43.3549 35.8303C43.0832 35.9463 42.8511 36.117 42.6589 36.3423C42.4667 36.5677 42.3175 36.8428 42.2115 37.1676C42.1087 37.4924 42.054 37.8636 42.0474 38.2812C42.0474 39.1364 42.2479 39.8208 42.649 40.3345C43.05 40.8482 43.5985 41.1051 44.2946 41.1051ZM52.5922 42.1591C51.9028 42.1591 51.2979 41.995 50.7775 41.6669C50.2605 41.3388 49.8561 40.8797 49.5645 40.2898C49.2761 39.6998 49.1319 39.0104 49.1319 38.2216C49.1319 37.4261 49.2761 36.7318 49.5645 36.1385C49.8561 35.5452 50.2605 35.0845 50.7775 34.7564C51.2979 34.4283 51.9028 34.2642 52.5922 34.2642C53.2815 34.2642 53.8848 34.4283 54.4018 34.7564C54.9222 35.0845 55.3265 35.5452 55.6149 36.1385C55.9065 36.7318 56.0524 37.4261 56.0524 38.2216C56.0524 39.0104 55.9065 39.6998 55.6149 40.2898C55.3265 40.8797 54.9222 41.3388 54.4018 41.6669C53.8848 41.995 53.2815 42.1591 52.5922 42.1591ZM52.5922 41.1051C53.1158 41.1051 53.5467 40.9709 53.8848 40.7024C54.2228 40.4339 54.4731 40.081 54.6355 39.6435C54.7979 39.206 54.8791 38.732 54.8791 38.2216C54.8791 37.7112 54.7979 37.2356 54.6355 36.7947C54.4731 36.3539 54.2228 35.9976 53.8848 35.7259C53.5467 35.4541 53.1158 35.3182 52.5922 35.3182C52.0685 35.3182 51.6376 35.4541 51.2995 35.7259C50.9615 35.9976 50.7112 36.3539 50.5488 36.7947C50.3864 37.2356 50.3052 37.7112 50.3052 38.2216C50.3052 38.732 50.3864 39.206 50.5488 39.6435C50.7112 40.081 50.9615 40.4339 51.2995 40.7024C51.6376 40.9709 52.0685 41.1051 52.5922 41.1051ZM56.8453 35.4574V34.3636H63.0499V35.4574H60.5442V42H59.3709V35.4574H56.8453ZM68.7399 37.0881V38.1818H64.2853V37.0881H68.7399ZM70.3271 40.0511H71.5799C71.6064 40.3958 71.7622 40.6577 72.0472 40.8366C72.3356 41.0156 72.7101 41.1051 73.1708 41.1051C73.6415 41.1051 74.0442 41.009 74.3789 40.8168C74.7137 40.6212 74.881 40.3063 74.881 39.8722C74.881 39.617 74.8181 39.3949 74.6921 39.206C74.5662 39.0137 74.3888 38.8646 74.1602 38.7585C73.9315 38.6525 73.6613 38.5994 73.3498 38.5994H72.0373V37.5455H73.3498C73.8171 37.5455 74.1618 37.4394 74.3839 37.2273C74.6093 37.0152 74.7219 36.75 74.7219 36.4318C74.7219 36.0904 74.601 35.817 74.359 35.6115C74.1171 35.4027 73.774 35.2983 73.3299 35.2983C72.8825 35.2983 72.5096 35.3994 72.2113 35.6016C71.913 35.8004 71.7556 36.0573 71.739 36.3722H70.506C70.5193 35.9612 70.6452 35.5982 70.8839 35.2834C71.1225 34.9652 71.4473 34.7166 71.8583 34.5376C72.2693 34.3554 72.7399 34.2642 73.2702 34.2642C73.8072 34.2642 74.2728 34.3587 74.6673 34.5476C75.065 34.7332 75.3716 34.9867 75.587 35.3082C75.8058 35.6264 75.9151 35.9877 75.9151 36.392C75.9151 36.8229 75.7942 37.1709 75.5522 37.4361C75.3103 37.7012 75.007 37.8902 74.6424 38.0028V38.0824C74.9308 38.1023 75.181 38.1951 75.3931 38.3608C75.6085 38.5232 75.7759 38.737 75.8952 39.0021C76.0146 39.264 76.0742 39.554 76.0742 39.8722C76.0742 40.3362 75.9499 40.7405 75.7013 41.0852C75.4528 41.4266 75.1114 41.6918 74.6772 41.8807C74.243 42.0663 73.7475 42.1591 73.1907 42.1591C72.6504 42.1591 72.1665 42.0713 71.739 41.8956C71.3114 41.7166 70.9717 41.4697 70.7198 41.1548C70.4712 40.8366 70.3403 40.4688 70.3271 40.0511ZM79.9695 42.179C79.4856 42.179 79.0464 42.0878 78.652 41.9055C78.2576 41.7199 77.9444 41.4531 77.7124 41.1051C77.4804 40.7538 77.3643 40.3295 77.3643 39.8324C77.3643 39.3949 77.4505 39.0402 77.6229 38.7685C77.7952 38.4934 78.0256 38.2779 78.3139 38.1222C78.6023 37.9664 78.9205 37.8504 79.2685 37.7741C79.6198 37.6946 79.9728 37.6316 80.3274 37.5852C80.7914 37.5256 81.1676 37.4808 81.456 37.451C81.7476 37.4179 81.9598 37.3632 82.0923 37.2869C82.2282 37.2107 82.2962 37.0781 82.2962 36.8892V36.8494C82.2962 36.3589 82.1619 35.9777 81.8935 35.706C81.6283 35.4342 81.2256 35.2983 80.6854 35.2983C80.1252 35.2983 79.6861 35.4209 79.3679 35.6662C79.0497 35.9115 78.826 36.1733 78.6967 36.4517L77.5831 36.054C77.782 35.59 78.0471 35.2287 78.3786 34.9702C78.7133 34.7083 79.0779 34.526 79.4723 34.4233C79.87 34.3172 80.2611 34.2642 80.6456 34.2642C80.8909 34.2642 81.1726 34.294 81.4908 34.3537C81.8123 34.41 82.1222 34.5277 82.4205 34.7067C82.7221 34.8857 82.9723 35.1558 83.1712 35.517C83.37 35.8783 83.4695 36.3622 83.4695 36.9688V42H82.2962V40.9659H82.2365C82.157 41.1316 82.0244 41.3089 81.8388 41.4979C81.6532 41.6868 81.4063 41.8475 81.098 41.9801C80.7898 42.1127 80.4136 42.179 79.9695 42.179ZM80.1484 41.125C80.6125 41.125 81.0036 41.0339 81.3217 40.8516C81.6432 40.6693 81.8852 40.4339 82.0476 40.1456C82.2133 39.8572 82.2962 39.554 82.2962 39.2358V38.1619C82.2464 38.2216 82.1371 38.2763 81.968 38.326C81.8023 38.3724 81.6101 38.4138 81.3913 38.4503C81.1759 38.4834 80.9654 38.5133 80.7599 38.5398C80.5578 38.563 80.3937 38.5829 80.2678 38.5994C79.9628 38.6392 79.6778 38.7038 79.4126 38.7933C79.1508 38.8795 78.9387 39.0104 78.7763 39.1861C78.6172 39.3584 78.5376 39.5937 78.5376 39.892C78.5376 40.2997 78.6884 40.608 78.9901 40.8168C79.295 41.0223 79.6811 41.125 80.1484 41.125ZM85.611 42V34.3636H86.7843V37.6847H87.5598L90.3042 34.3636H91.8155L88.7331 38.0426L91.8553 42H90.3439L87.8382 38.7784H86.7843V42H85.611ZM93.8862 44.8636C93.6873 44.8636 93.51 44.8471 93.3542 44.8139C93.1984 44.7841 93.0907 44.7543 93.0311 44.7244L93.3294 43.6903C93.6144 43.7633 93.8663 43.7898 94.085 43.7699C94.3038 43.75 94.4977 43.6522 94.6667 43.4766C94.8391 43.3042 94.9965 43.0241 95.139 42.6364L95.3578 42.0398L92.5339 34.3636H93.8066L95.9146 40.4489H95.9941L98.1021 34.3636H99.3748L96.1333 43.1136C95.9875 43.508 95.8069 43.8345 95.5914 44.093C95.376 44.3549 95.1258 44.5488 94.8407 44.6747C94.559 44.8007 94.2408 44.8636 93.8862 44.8636ZM100.923 42V34.3636H106.929V42H105.756V35.4574H102.097V42H100.923ZM119.492 40.9062L119.353 44.1875H118.14V42H117.146V40.9062H119.492ZM109.072 34.3636H110.245V40.9062H113.129V34.3636H114.302V40.9062H117.186V34.3636H118.359V42H109.072V34.3636ZM122.372 40.2699L126.051 34.3636H127.403V42H126.23V36.0938L122.571 42H121.199V34.3636H122.372V40.2699ZM129.552 42V34.3636H130.726V37.6847H131.501L134.246 34.3636H135.757L132.675 38.0426L135.797 42H134.285L131.78 38.7784H130.726V42H129.552Z" fill="#252525"/>
</svg>
