<svg width="27" height="27" viewBox="0 0 27 27" fill="none" xmlns="http://www.w3.org/2000/svg">
<path d="M8.93201 2.76068C8.61565 3.07713 8.43793 3.50628 8.43793 3.95374C8.43793 4.4012 8.61565 4.83035 8.93201 5.1468L17.2851 13.4999L8.93201 21.8531C8.62462 22.1713 8.45453 22.5976 8.45837 23.04C8.46222 23.4825 8.63969 23.9057 8.95256 24.2186C9.26544 24.5315 9.68869 24.709 10.1311 24.7128C10.5736 24.7167 10.9999 24.5466 11.3181 24.2392L20.8643 14.693C21.1807 14.3765 21.3584 13.9474 21.3584 13.4999C21.3584 13.0525 21.1807 12.6233 20.8643 12.3069L11.3181 2.76068C11.0017 2.44432 10.5725 2.2666 10.1251 2.2666C9.67761 2.2666 9.24846 2.44432 8.93201 2.76068Z" fill="black"/>
</svg>
