<svg width="40" height="38" viewBox="0 0 40 38" fill="none" xmlns="http://www.w3.org/2000/svg">
<path d="M35.9096 12.5711C35.4408 12.1258 34.805 11.8757 34.1421 11.8757C33.4792 11.8757 32.8435 12.1258 32.3746 12.5711L19.9996 24.3273L7.62464 12.5711C7.15313 12.1384 6.52163 11.8991 5.86613 11.9045C5.21064 11.9099 4.58361 12.1597 4.12009 12.6C3.65657 13.0403 3.39365 13.636 3.38795 14.2587C3.38226 14.8815 3.63424 15.4814 4.08964 15.9293L18.2321 29.3647C18.701 29.8099 19.3367 30.0601 19.9996 30.0601C20.6625 30.0601 21.2983 29.8099 21.7671 29.3647L35.9096 15.9293C36.3783 15.4839 36.6416 14.88 36.6416 14.2502C36.6416 13.6204 36.3783 13.0164 35.9096 12.5711Z" fill="white"/>
</svg>
