<svg width="20" height="40" viewBox="0 0 20 40" fill="none" xmlns="http://www.w3.org/2000/svg">
<path d="M19.2352 39.1377C19.7249 38.5854 20 37.8365 20 37.0556C20 36.2746 19.7249 35.5257 19.2352 34.9734L6.30513 20.3953L19.2352 5.81715C19.711 5.2617 19.9743 4.51777 19.9684 3.74558C19.9624 2.97339 19.6877 2.23472 19.2034 1.68868C18.7191 1.14264 18.0639 0.832917 17.379 0.826206C16.6941 0.819496 16.0343 1.11634 15.5416 1.65281L0.764798 18.3131C0.275098 18.8654 2.10989e-07 19.6143 2.02907e-07 20.3953C1.94824e-07 21.1762 0.275098 21.9251 0.764798 22.4774L15.5416 39.1377C16.0315 39.6898 16.6958 40 17.3884 40C18.0811 40 18.7454 39.6898 19.2352 39.1377Z" fill="#505050"/>
</svg>
